<svg width="18" height="19" viewBox="0 0 18 19" fill="none" xmlns="http://www.w3.org/2000/svg">
<path d="M14.6746 13.6123L5.75496 4.17731C5.75496 4.0896 5.67273 3.81548 5.62338 3.49751C5.59722 2.94089 5.38705 2.40869 5.02582 1.9844C4.38439 1.37038 3.49077 0.931796 2.8 1.12368L3.6388 2.01181C3.76288 2.12484 3.86259 2.26201 3.93183 2.41492C4.00106 2.56782 4.03836 2.73325 4.04144 2.90108C4.04452 3.0689 4.01331 3.23558 3.94974 3.39093C3.88616 3.54627 3.79155 3.68701 3.67169 3.80452C3.54738 3.91354 3.40199 3.99583 3.24454 4.04629C3.08708 4.09676 2.92094 4.11431 2.75642 4.09786C2.5919 4.0814 2.43252 4.0313 2.28817 3.95066C2.14383 3.87002 2.01761 3.76056 1.91736 3.62908L1.07857 2.74095C0.820898 3.42076 1.23207 4.3363 1.80223 5.01062C2.20836 5.40249 2.73259 5.64919 3.29341 5.71235C3.67717 5.80007 4.00063 5.89327 4.00063 5.89327L12.8819 15.2954C12.8013 15.6628 12.8121 16.0445 12.9134 16.4068C13.0147 16.7691 13.2035 17.1009 13.4631 17.3732C13.6636 17.587 13.9042 17.7592 14.1713 17.8801C14.4384 18.0009 14.7266 18.0679 15.0196 18.0773C15.3126 18.0867 15.6045 18.0384 15.8788 17.935C16.1531 17.8315 16.4043 17.6751 16.6181 17.4746C16.8319 17.2741 17.0042 17.0334 17.125 16.7664C17.2458 16.4993 17.3128 16.2111 17.3223 15.9181C17.3317 15.6251 17.2833 15.3331 17.1799 15.0589C17.0765 14.7846 16.92 14.5334 16.7195 14.3195C16.4621 14.0439 16.1413 13.8354 15.7849 13.7121C15.4285 13.5889 15.0473 13.5546 14.6746 13.6123Z" fill="white" stroke="#363A45" stroke-width="0.7" stroke-linecap="round" stroke-linejoin="round"/>
<path d="M16.5943 1.95037L16.1283 1.48438L16.0187 1.59402L13.601 3.40866L13.8915 3.69922L9.46732 8.14536L8.57371 7.25723L8.02548 7.80546L8.25025 8.35368L7.70202 8.90191L1.47414 15.1737C1.21536 15.4336 1.07007 15.7854 1.07007 16.1522C1.07007 16.519 1.21536 16.8709 1.47414 17.1308L1.63861 17.3008C1.76743 17.4297 1.9204 17.5321 2.08878 17.6019C2.25717 17.6717 2.43766 17.7076 2.61994 17.7076C2.80222 17.7076 2.98271 17.6717 3.15109 17.6019C3.31948 17.5321 3.47245 17.4297 3.60127 17.3008L10.3938 10.5466L10.9421 10.7714L11.4903 10.2231L10.6022 9.33501L15.0922 4.88888L15.3882 5.17944L17.2193 2.7782L17.3234 2.66855L16.852 2.19707L16.5943 1.95037Z" fill="white" stroke="#363A45" stroke-width="0.7" stroke-linecap="round" stroke-linejoin="round"/>
<path d="M9.06371 9.31363L8.75486 9.00146L8.60542 9.15423L8.68512 9.35016L8.48586 9.54942L4.89065 13.1579C4.84547 13.2027 4.8096 13.256 4.78513 13.3147C4.76065 13.3734 4.74805 13.4364 4.74805 13.5C4.74805 13.5636 4.76065 13.6266 4.78513 13.6853C4.8096 13.744 4.84547 13.7973 4.89065 13.842L4.95043 13.9018C4.9952 13.947 5.04848 13.9829 5.10719 14.0073C5.1659 14.0318 5.22888 14.0444 5.29249 14.0444C5.3561 14.0444 5.41907 14.0318 5.47778 14.0073C5.53649 13.9829 5.58977 13.947 5.63454 13.9018L9.43898 10.1073L9.63159 10.187L9.78103 10.0343L9.46886 9.72211L9.06371 9.31363Z" fill="#00C65E"/>
<path d="M15.9958 16.43C15.8784 16.6165 15.708 16.7637 15.5066 16.8529C15.3051 16.9421 15.0816 16.9693 14.8646 16.9309C14.6477 16.8926 14.447 16.7904 14.2884 16.6375C14.1297 16.4846 14.0202 16.288 13.9738 16.0726C13.9274 15.8572 13.9463 15.6328 14.028 15.4282C14.1096 15.2235 14.2504 15.0479 14.4324 14.9236C14.6143 14.7993 14.8292 14.7321 15.0495 14.7305C15.2699 14.7289 15.4857 14.793 15.6694 14.9145C15.7905 14.9925 15.8949 15.0936 15.9768 15.212C16.0588 15.3305 16.1165 15.4639 16.1468 15.6046C16.1772 15.7454 16.1794 15.8907 16.1535 16.0324C16.1276 16.174 16.074 16.3091 15.9958 16.43Z" fill="#00C65E"/>
</svg>
