<svg width="72" height="31" viewBox="0 0 72 31" fill="none" xmlns="http://www.w3.org/2000/svg">
<path d="M0 8.8315H7.10074V25.0331H10.1531C17.0021 25.0331 20.4253 21.7054 20.4227 15.0499C20.4227 8.53044 17.2445 5.27189 10.8881 5.27428H9.60581V0L10.5226 0C15.99 0 20.2379 1.31201 23.2662 3.93603C26.2944 6.56004 27.8072 10.2134 27.8045 14.8961C27.8045 19.8817 26.2369 23.6985 23.1015 26.3463C19.9661 28.9942 15.4278 30.3265 9.48639 30.3432H0V8.8315Z" fill="#00C65E"/>
<path d="M7.10475 0H0V6.32985H7.10475V0Z" fill="#00C65E"/>
<path d="M34.5967 12.3477V21.1719H32.1621V12.3477H34.5967ZM34.3857 8.84961C34.6436 9.0957 34.7725 9.42383 34.7725 9.83398C34.7725 10.2383 34.6436 10.5635 34.3857 10.8096C34.1279 11.0557 33.7764 11.1787 33.3311 11.1787C32.9209 11.1787 32.5928 11.0557 32.3467 10.8096C32.1064 10.5635 31.9863 10.2383 31.9863 9.83398C31.9863 9.42383 32.1094 9.0957 32.3555 8.84961C32.6016 8.60352 32.9268 8.48047 33.3311 8.48047C33.7764 8.48047 34.1279 8.60352 34.3857 8.84961ZM39.5537 8.56836V21.1719H37.1191V8.56836H39.5537ZM44.0537 21.708L44.3262 21.084L40.9072 12.3477H43.4297L45.4951 18.2012L47.5693 12.3477H50.083L46.5762 21.708C45.7734 23.8701 44.6338 24.9512 43.1572 24.9512C42.8936 24.9512 42.6328 24.9277 42.375 24.8809C42.1172 24.834 41.9268 24.7871 41.8037 24.7402L41.6279 24.6787V22.5254C41.8682 22.6426 42.167 22.7012 42.5244 22.7012C43.2568 22.7012 43.7666 22.3701 44.0537 21.708ZM50.3994 20.9434C50.1182 20.6738 49.9775 20.3604 49.9775 20.0029C49.9775 19.6396 50.1182 19.3232 50.3994 19.0537C50.6807 18.7842 51.0205 18.6494 51.4189 18.6494C51.8174 18.6494 52.1572 18.7842 52.4385 19.0537C52.7197 19.3232 52.8604 19.6396 52.8604 20.0029C52.8604 20.3604 52.7197 20.6738 52.4385 20.9434C52.1572 21.2129 51.8174 21.3477 51.4189 21.3477C51.0205 21.3477 50.6807 21.2129 50.3994 20.9434ZM60.0586 12.2598V14.6943C59.877 14.6357 59.6074 14.6035 59.25 14.5977C58.6113 14.5977 58.1045 14.7998 57.7295 15.2041C57.3604 15.6084 57.1758 16.1885 57.1758 16.9443V21.1719H54.75V12.3477H57.1758V13.4287C57.2461 13.3467 57.3457 13.2412 57.4746 13.1123C57.6035 12.9775 57.8848 12.8018 58.3184 12.585C58.7578 12.3682 59.2178 12.2598 59.6982 12.2598H60.0586ZM67.3535 21.1719V20.2754C67.2832 20.3574 67.1836 20.46 67.0547 20.583C66.9258 20.7002 66.6416 20.8584 66.2021 21.0576C65.7686 21.251 65.3115 21.3477 64.8311 21.3477C63.8232 21.3477 63 21.0107 62.3613 20.3369C61.7285 19.6572 61.4121 18.7549 61.4121 17.6299V12.3477H63.8379V17.3926C63.8379 17.8848 63.999 18.292 64.3213 18.6143C64.6494 18.9365 65.0596 19.0977 65.5518 19.0977C66.1025 19.0977 66.5391 18.9189 66.8613 18.5615C67.1895 18.2041 67.3535 17.6943 67.3535 17.0322V12.3477H69.7793V21.1719H67.3535Z" fill="#00C65E"/>
</svg>
