<svg width="13" height="13" viewBox="0 0 13 13" fill="none" xmlns="http://www.w3.org/2000/svg">
<path fill-rule="evenodd" clip-rule="evenodd" d="M1.95752 12.5908C1.95752 12.5908 0.95752 12.5908 0.95752 11.5908C0.95752 10.5908 1.95752 7.59082 6.95752 7.59082C11.9575 7.59082 12.9575 10.5908 12.9575 11.5908C12.9575 12.5908 11.9575 12.5908 11.9575 12.5908H1.95752ZM6.95752 6.59082C7.75317 6.59082 8.51623 6.27475 9.07884 5.71214C9.64145 5.14953 9.95752 4.38647 9.95752 3.59082C9.95752 2.79517 9.64145 2.03211 9.07884 1.4695C8.51623 0.906891 7.75317 0.59082 6.95752 0.59082C6.16187 0.59082 5.39881 0.906891 4.8362 1.4695C4.27359 2.03211 3.95752 2.79517 3.95752 3.59082C3.95752 4.38647 4.27359 5.14953 4.8362 5.71214C5.39881 6.27475 6.16187 6.59082 6.95752 6.59082V6.59082Z" fill="#00C65E"/>
</svg>
