<svg width="16" height="18" viewBox="0 0 16 18" fill="none" xmlns="http://www.w3.org/2000/svg">
<path d="M8.53145 0.606733L8.53143 0.606754L8.53494 0.609128L15.1223 5.06392C15.3043 5.18731 15.4417 5.36597 15.5143 5.57348L15.8447 5.45791L15.5143 5.57348C15.5869 5.78099 15.5908 6.00636 15.5255 6.21626C15.4601 6.42617 15.329 6.60949 15.1514 6.73912C14.9739 6.86876 14.7593 6.93784 14.5395 6.93615C14.4462 6.93544 14.3565 6.97199 14.2903 7.03771C14.224 7.10342 14.1868 7.19285 14.1868 7.28614V16.4095C14.1868 16.4895 14.155 16.5663 14.0984 16.6228C14.0419 16.6794 13.9651 16.7112 13.8851 16.7112H2.03658H2.03653C1.95434 16.7112 1.87543 16.6789 1.81679 16.6213L1.57155 16.8711L1.81679 16.6213C1.75876 16.5644 1.72518 16.4871 1.72307 16.4058V7.28614C1.72307 7.09298 1.56658 6.93633 1.37341 6.93614C1.15433 6.93592 0.941092 6.86548 0.764996 6.73515C0.588899 6.60482 0.459222 6.42147 0.395002 6.21201C0.330782 6.00255 0.335401 5.77802 0.408182 5.57139C0.480943 5.3648 0.617997 5.18698 0.799233 5.06401C0.799282 5.06397 0.79933 5.06394 0.799379 5.06391L7.38677 0.609128L7.38678 0.609149L7.39026 0.606733C7.55781 0.490443 7.7569 0.428125 7.96086 0.428125C8.16481 0.428125 8.3639 0.490443 8.53145 0.606733Z" stroke="#363A45" stroke-width="0.7" stroke-linecap="round" stroke-linejoin="round"/>
</svg>
